<?xml version="1.0" encoding="UTF-8" standalone="no"?>
<!-- Created with Inkscape (http://www.inkscape.org/) -->

<svg
   xmlns:dc="http://purl.org/dc/elements/1.1/"
   xmlns:cc="http://creativecommons.org/ns#"
   xmlns:rdf="http://www.w3.org/1999/02/22-rdf-syntax-ns#"
   xmlns:svg="http://www.w3.org/2000/svg"
   xmlns="http://www.w3.org/2000/svg"
   xmlns:sodipodi="http://sodipodi.sourceforge.net/DTD/sodipodi-0.dtd"
   xmlns:inkscape="http://www.inkscape.org/namespaces/inkscape"
   version="1.1"
   id="svg869"
   width="956"
   height="956"
   viewBox="0 0 956 956"
   sodipodi:docname="news.svg"
   inkscape:version="0.92.2 (5c3e80d, 2017-08-06)">
  <metadata
     id="metadata875">
    <rdf:RDF>
      <cc:Work
         rdf:about="">
        <dc:format>image/svg+xml</dc:format>
        <dc:type
           rdf:resource="http://purl.org/dc/dcmitype/StillImage" />
        <dc:title></dc:title>
      </cc:Work>
    </rdf:RDF>
  </metadata>
  <defs
     id="defs873">
    <inkscape:path-effect
       is_visible="true"
       id="path-effect4428"
       effect="spiro" />
    <filter
       height="1.0954372"
       y="-0.047718617"
       width="1.0965694"
       x="-0.048284721"
       id="filter4228"
       style="color-interpolation-filters:sRGB"
       inkscape:collect="always">
      <feGaussianBlur
         id="feGaussianBlur4230"
         stdDeviation="0.5203914"
         inkscape:collect="always" />
    </filter>
  </defs>
  <sodipodi:namedview
     pagecolor="#ffffff"
     bordercolor="#666666"
     borderopacity="1"
     objecttolerance="10"
     gridtolerance="10"
     guidetolerance="10"
     inkscape:pageopacity="0"
     inkscape:pageshadow="2"
     inkscape:window-width="640"
     inkscape:window-height="480"
     id="namedview871"
     showgrid="false"
     inkscape:zoom="0.76150628"
     inkscape:cx="478"
     inkscape:cy="580.89095"
     inkscape:current-layer="svg869" />
  <path
     id="path4225"
     d="m 13.919922,1015.3691 c -0.849648,0.01 -1.696659,0.062 -2.539063,0.1602 a 0.34103761,0.34103761 0 0 0 -0.302734,0.3379 v 5.0312 c -0.0063,10e-4 -0.01385,0 -0.01953,0 0,0 0.04488,0.6778 0.04492,0.6778 3.8e-5,0 0.03506,0 0.03516,0 1.98e-4,0 0.0095,3e-4 0.01172,0 0.0088,-10e-4 0.01161,0 0.01758,0 0.02484,0 0.113173,-0.018 0.177734,-0.027 0.0113,0 0.01921,0 0.03125,0 0.01554,0 0.04082,-0.01 0.07617,-0.012 0.0155,0 0.0385,0 0.05664,-0.01 0.0119,0 0.01553,0 0.02734,0 0.0043,-6e-4 0.0055,0 0.0098,0 0.01414,0 0.02713,0 0.04297,-0.01 0.0043,-6e-4 0.0055,0 0.0098,0 0.0103,0 0.01652,0 0.02734,0 0.01097,0 0.02124,0 0.0332,0 0.0041,-5e-4 0.0056,0 0.0098,0 0.01798,0 0.0244,0 0.04297,-0.01 0.01244,0 0.01831,0 0.03125,0 0.0049,-7e-4 0.0068,0 0.01172,0 0.02366,0 0.03217,0 0.05664,-0.01 0.0058,-8e-4 0.008,0 0.01367,0 0.01701,0 0.02227,0 0.03906,-0.01 0.0075,-10e-4 0.01014,-10e-4 0.01758,0 0.0093,0 0.01218,-8e-4 0.02149,0 0.0154,0 0.02124,0 0.03711,0 0.01848,0 0.02509,0 0.04297,-0.01 0.02367,0 0.03205,0 0.05664,-0.01 0.006,-8e-4 0.0098,0 0.01563,0 5.7e-4,-1e-4 0.0014,10e-5 0.002,0 0.0058,-7e-4 0.01004,0 0.01563,0 0.01609,0 0.02385,0 0.03906,0 0.0019,-3e-4 0.004,0 0.0059,0 0.0024,-3e-4 0.0055,3e-4 0.0078,0 0.0058,-7e-4 0.008,0 0.01367,0 0.0011,-2e-4 0.0028,10e-5 0.0039,0 0.0041,-5e-4 0.0056,0 0.0098,0 0.0101,0 0.01343,-8e-4 0.02344,0 0.01426,0 0.01875,0 0.0332,0 0.01198,0 0.02039,-7e-4 0.0332,0 0.01021,0 0.01334,0 0.02344,0 0.01252,0 0.01825,-7e-4 0.03125,0 0.01618,0 0.02112,0 0.03711,0 0.01765,0 0.02391,0 0.04101,0 0.01358,0 0.0178,0 0.03125,0 0.006,-6e-4 0.01186,0 0.01758,0 0.01252,0 0.01824,-8e-4 0.03125,0 0.01613,0 0.02117,0 0.03711,0 7.64e-4,-1e-4 0.0012,10e-5 0.002,0 0.0046,-5e-4 0.0072,0 0.01172,0 0.0031,-3e-4 0.0068,4e-4 0.0098,0 0.0034,-2e-4 0.0044,3e-4 0.0078,0 0.0072,-5e-4 0.01022,0 0.01758,0 0.0016,-2e-4 0.0023,10e-5 0.0039,0 0.0052,-4e-4 0.0084,0 0.01367,0 0.02152,0 0.02876,0 0.05078,0 0.0014,-1e-4 0.0025,10e-5 0.0039,0 0.02272,0 0.03107,0 0.05469,0 0.01083,-9e-4 0.0148,0 0.02539,0 0.0205,0 0.02672,0 0.04688,0 0.01249,-9e-4 0.01827,0 0.03125,0 0.01639,0 0.02346,0 0.03906,0 0.01754,0 0.02403,-7e-4 0.04102,0 0.03413,0 0.04546,0 0.07813,-0.01 0.006,-4e-4 0.0077,0 0.01367,0 0.0035,-2e-4 0.0064,3e-4 0.0098,0 0.01112,-7e-4 0.01667,0 0.02734,0 0.01011,-6e-4 0.01324,0 0.02344,0 0.0033,-2e-4 0.0046,3e-4 0.0078,0 0.01538,-10e-4 0.02244,-10e-4 0.03711,0 0.0177,0 0.02388,-10e-4 0.04102,0 0.04338,0 0.05912,0 0.09961,-0.01 0.01029,-6e-4 0.01985,0 0.0293,0 0.0044,-2e-4 0.0095,3e-4 0.01367,0 0.01678,-6e-4 0.02357,0 0.04102,0 0.02242,-9e-4 0.0298,0 0.05273,0 0.03485,0 0.04671,0 0.08008,0 0.02602,-10e-4 0.03872,-10e-4 0.0625,0 0.0055,-2e-4 0.0099,1e-4 0.01563,0 0.0059,-2e-4 0.0078,1e-4 0.01367,0 0.0169,-6e-4 0.02247,0 0.03906,0 0.0045,-2e-4 0.0073,2e-4 0.01172,0 0.0066,-2e-4 0.0092,2e-4 0.01563,0 0.0163,-4e-4 0.02226,0 0.03906,0 0.01761,-5e-4 0.02396,4e-4 0.04101,0 0.02725,-7e-4 0.03603,0 0.0625,0 0.0067,-2e-4 0.01113,2e-4 0.01758,0 0.01058,-2e-4 0.01513,2e-4 0.02539,0 0.02236,-3e-4 0.02987,3e-4 0.05274,0 0.03492,-4e-4 0.04665,0 0.08008,0 0.03401,-3e-4 0.0456,4e-4 0.07813,0 0.0021,1e-4 0.0037,0 0.0059,0 0.02041,2e-4 0.03431,-10e-5 0.05664,0 0.02926,3e-4 0.04919,-10e-5 0.07422,0 0.01338,4e-4 0.04102,-4e-4 0.0625,0 0.02485,5e-4 0.04336,0 0.07227,0 0.02232,4e-4 0.03625,-4e-4 0.05664,0 0.0197,3e-4 0.03989,0 0.05469,0 0.0076,2e-4 0.0167,-3e-4 0.02539,0 0.02481,7e-4 0.04336,0 0.07226,0 0.02078,6e-4 0.03352,-6e-4 0.05274,0 0.01994,5e-4 0.03934,0 0.05469,0 0.0082,2e-4 0.02305,-10e-5 0.0293,0 0.0073,3e-4 0.0136,0 0.02148,0 0.0186,8e-4 0.03078,0 0.05078,0 0.02185,0 0.03465,0 0.05469,0 0.002,1e-4 0.004,-2e-4 0.0059,0 0.0042,2e-4 0.0077,0 0.01172,0 0.01681,0 0.05128,0 0.08008,0 0.02039,0 0.03431,0 0.05664,0 0.02965,0 0.04894,0 0.07422,0 0.01686,0 0.05078,0 0.08008,0 0.02004,0 0.03283,0 0.05469,0 0.05383,0 0.107599,0.01 0.136719,0.01 0.0013,1e-4 0.0025,-10e-5 0.0039,0 0.02336,0 0.03989,0 0.06641,0.01 0.0215,0 0.03492,0 0.05469,0 0.0071,5e-4 0.01295,0 0.01953,0 0.0142,0 0.04325,0 0.06641,0.01 0.01223,0 0.02163,7e-4 0.03516,0 0.01284,0 0.01991,0 0.0332,0 0.05379,0 0.107887,0.011 0.136719,0.014 0.002,2e-4 0.0038,-2e-4 0.0059,0 0.02319,0 0.04004,0.01 0.06641,0.01 0.0535,0.01 0.105888,0.011 0.134766,0.014 0.0073,9e-4 0.01356,10e-4 0.02148,0 0.01877,0 0.03055,0 0.05078,0.01 0.02177,0 0.03472,0 0.05469,0.01 0.0022,2e-4 0.0037,0 0.0059,0 0.004,6e-4 0.0087,0 0.01367,0 0.0285,0 0.08134,0.011 0.134766,0.018 0.02042,0 0.03187,0 0.05078,0.01 0.0073,0 0.01223,9e-4 0.01953,0 0.0038,6e-4 0.01305,0 0.01758,0 0.01669,0 0.04087,0.01 0.06445,0.01 0.01928,0 0.03183,0 0.05273,0.01 0.01625,0 0.02556,0 0.04102,0.01 3.43e-4,0 0.01507,0 0.01758,0 0.0022,3e-4 0.0037,0 0.0059,0 0.0033,5e-4 0.0055,0 0.0098,0 0.01247,0 0.04024,0 0.06055,0.01 0.02499,0 0.04479,0.01 0.07422,0.012 0.0278,0 0.04615,0.01 0.07031,0.01 0.0047,7e-4 0.0093,0 0.01367,0 0.01724,0 0.04457,0.01 0.07031,0.012 0.01867,0 0.03064,0.01 0.05078,0.01 0.02156,0 0.0349,0 0.05469,0.01 0.0291,0 0.06309,0.011 0.08008,0.014 0.0071,0 0.01141,0 0.01758,0 0.01971,0 0.03318,0.01 0.05469,0.01 0.02017,0 0.03209,0 0.05078,0.01 0.0066,0 0.01239,0 0.01953,0 0.02158,0 0.04905,0.01 0.0625,0.012 0.0071,0 0.01306,0 0.01953,0 0.01873,0 0.03055,0.01 0.05078,0.01 0.0529,0.01 0.10496,0.022 0.132813,0.027 6.34e-4,1e-4 0.0013,-2e-4 0.002,0 0.02414,0 0.04232,0.01 0.07031,0.016 0.02141,0 0.03504,0.01 0.05469,0.01 0.0064,0 0.01161,0 0.01758,0 0.02792,0.01 0.08003,0.018 0.132812,0.029 0.02058,0 0.03373,0.01 0.05273,0.01 0.0069,0 0.01045,0 0.01758,0 0.006,0 0.01206,0 0.01758,0 0.02971,0.01 0.06969,0.017 0.115234,0.027 0.02077,0 0.03361,0.01 0.05273,0.012 0.02918,0.01 0.06341,0.016 0.08008,0.019 0.0069,0 0.01228,0 0.01758,0 0.0026,6e-4 0.01724,0 0.01758,0 0.0136,0 0.021,0.01 0.03516,0.01 0.02147,0.01 0.03503,0.01 0.05469,0.012 0.0043,0 0.0076,0 0.01172,0 0.002,6e-4 0.0036,0 0.0059,0 0.01625,0 0.05,0.012 0.07813,0.019 0.01969,0.01 0.03315,0.01 0.05469,0.014 0.02037,0.01 0.03197,0.01 0.05078,0.014 6.77e-4,1e-4 0.0013,-2e-4 0.002,0 0.0055,0 0.01072,0 0.01758,0 0.02085,0.01 0.04747,0.012 0.06055,0.016 0.0071,0 0.01311,0 0.01953,0.01 0.01862,0 0.03061,0.01 0.05078,0.014 0.05198,0.014 0.102642,0.028 0.13086,0.035 0.0071,0 0.01281,0 0.01953,0 0.01869,0.01 0.03052,0.01 0.05078,0.016 0.01245,0 0.01919,0 0.03125,0.01 0.0062,0 0.0096,0 0.01563,0.01 0.0023,8e-4 0.0051,0 0.0059,0 0.0057,0 0.0107,0 0.01758,0.01 0.02001,0.01 0.04616,0.012 0.05859,0.016 0.0069,0 0.01201,0 0.01758,0.01 0.01975,0.01 0.03303,0.01 0.05469,0.016 0.01923,0.01 0.03094,0.01 0.04883,0.014 0.0072,0 0.01247,0 0.01953,0.01 0.02157,0.01 0.04909,0.016 0.0625,0.02 0.007,0 0.01122,0 0.01758,0.01 0.01853,0.01 0.03071,0.011 0.05078,0.018 0.02173,0.01 0.03491,0.01 0.05469,0.016 0.0048,0 0.01089,0 0.01758,0.01 0.01916,0.01 0.04482,0.014 0.05664,0.018 0.0026,8e-4 0.0051,0 0.0078,0 0.0028,9e-4 0.0053,0 0.0078,0 0.0021,7e-4 0.0037,0 0.0059,0 0.0044,0 0.0096,0 0.0098,0 0.01553,0 0.02461,0.01 0.04102,0.014 0.02017,0.01 0.03217,0.01 0.05078,0.016 0.0059,0 0.01073,0 0.01758,0.01 0.0209,0.01 0.0473,0.015 0.06055,0.019 0.007,0 0.01249,0 0.01953,0.01 0.01812,0.01 0.02926,0.011 0.04883,0.018 0.01229,0 0.01935,0.01 0.03125,0.01 3.2e-4,2e-4 0.01867,0.01 0.02148,0.01 0.0056,0 0.01082,0 0.01758,0.01 0.02009,0.01 0.04599,0.017 0.05859,0.021 0.0069,0 0.01152,0 0.01758,0.01 7.14e-4,3e-4 0.0037,0 0.0059,0 0.01718,0.01 0.02846,0.01 0.04687,0.016 0.01867,0.01 0.02948,0.01 0.04687,0.016 0.007,0 0.01262,0.01 0.01953,0.01 0.02106,0.01 0.04747,0.017 0.06055,0.021 0.023,0.01 0.03986,0.016 0.06641,0.025 0.02169,0.01 0.03501,0.012 0.05469,0.02 0.005,0 0.01098,0 0.01758,0.01 0.01847,0.01 0.04325,0.017 0.05469,0.022 5.77e-4,2e-4 0.0014,-2e-4 0.002,0 0.0056,0 0.0114,0 0.01563,0.01 0.0023,8e-4 0.0153,0.01 0.01563,0.01 0.0144,0.01 0.02199,0.01 0.03711,0.016 0.01975,0.01 0.03255,0.011 0.05078,0.018 0.02055,0.01 0.04148,0.016 0.05664,0.021 0.0057,0 0.01689,0.01 0.02148,0.01 0.0069,0 0.01081,0.01 0.01758,0.01 0.01788,0.01 0.02948,0.012 0.04883,0.02 0.02079,0.01 0.03372,0.012 0.05273,0.019 0.0056,0 0.009,0 0.01563,0.01 0.02008,0.01 0.04606,0.019 0.05859,0.023 0.0068,0 0.01169,0.01 0.01758,0.01 0.01839,0.01 0.03076,0.013 0.05078,0.021 0.0467,0.019 0.08949,0.036 0.117188,0.047 0.0019,7e-4 0.0061,0 0.0078,0 0.02284,0.01 0.03992,0.018 0.06641,0.029 0.02796,0.012 0.04665,0.019 0.07031,0.029 0.01848,0.01 0.04314,0.019 0.05469,0.023 0.01179,0.01 0.0218,0.01 0.03516,0.014 0.013,0.01 0.01966,0.01 0.0332,0.016 0.04942,0.021 0.098,0.043 0.125,0.055 0.0068,0 0.01292,0.01 0.01953,0.01 0.01678,0.01 0.02689,0.013 0.04492,0.022 0.04906,0.022 0.099,0.045 0.125,0.057 0.0065,0 0.01036,0 0.01563,0.01 0.01858,0.01 0.03041,0.016 0.05078,0.025 0.01926,0.01 0.03107,0.013 0.04883,0.021 0.0054,0 0.01115,0 0.01758,0.01 0.01954,0.01 0.04445,0.022 0.05664,0.027 0.0066,0 0.01183,0.01 0.01758,0.01 0.0029,0 0.02116,0.01 0.02148,0.01 0.01012,0 0.015,0.01 0.02539,0.014 0.01835,0.01 0.02985,0.013 0.04687,0.021 5.89e-4,3e-4 0.0017,0 0.002,0 0.0059,0 0.0091,0 0.01563,0.01 0.02603,0.013 0.07469,0.036 0.123047,0.061 0.01934,0.01 0.03104,0.015 0.04883,0.023 0.006,0 0.0111,0.01 0.01758,0.01 0.01863,0.01 0.04318,0.022 0.05469,0.027 0.0064,0 0.01078,0.01 0.01563,0.01 0.01848,0.01 0.03048,0.017 0.05078,0.027 0.01568,0.01 0.02425,0.012 0.03906,0.019 3.02e-4,2e-4 0.01161,0 0.01367,0.01 0.0041,0 0.0075,0 0.01367,0.01 0.01812,0.01 0.04143,0.022 0.05273,0.027 0.0064,0 0.01247,0.01 0.01758,0.01 0.0026,0 0.01726,0.01 0.01758,0.01 0.01265,0.01 0.02002,0.011 0.0332,0.018 0.02468,0.013 0.04095,0.022 0.0625,0.033 0.02022,0.011 0.04572,0.025 0.05859,0.031 0.0066,0 0.01046,0 0.01758,0.01 0.01654,0.01 0.02709,0.016 0.04492,0.025 0.01774,0.01 0.02844,0.015 0.04492,0.024 0.0066,0 0.01113,0.01 0.01758,0.01 0.01965,0.011 0.04446,0.025 0.05664,0.031 0.02151,0.012 0.03762,0.023 0.0625,0.037 0.01321,0.01 0.02054,0.01 0.0332,0.018 2.95e-4,2e-4 0.01526,0.01 0.01758,0.01 0.0046,0 0.0075,0 0.01367,0.01 0.01805,0.01 0.04172,0.023 0.05273,0.029 0.0061,0 0.01146,0.01 0.01563,0.01 0.0021,0 0.0114,0.01 0.01172,0.01 0.01464,0.01 0.02353,0.014 0.03906,0.023 0.01782,0.01 0.0284,0.016 0.04492,0.025 0.0058,0 0.01131,0.01 0.01758,0.01 0.01913,0.011 0.04261,0.026 0.05469,0.033 8.58e-4,5e-4 0.0012,0 0.002,0 0.02073,0.012 0.03676,0.021 0.06055,0.035 0.01915,0.011 0.03131,0.017 0.04883,0.027 0.0045,0 0.0096,0.01 0.01563,0.01 0.0179,0.011 0.04167,0.025 0.05273,0.031 0.0033,0 0.0063,0 0.0098,0.01 0.0015,9e-4 0.0024,0 0.0039,0 5.34e-4,3e-4 0.0025,0 0.0039,0 0.01653,0.01 0.02699,0.017 0.04492,0.027 0.04546,0.027 0.08993,0.055 0.115234,0.07 3.14e-4,2e-4 0.0016,-2e-4 0.002,0 0.0063,0 0.0095,0.01 0.01563,0.01 0.01654,0.01 0.02698,0.018 0.04492,0.029 0.01843,0.012 0.02993,0.017 0.04688,0.027 0.0051,0 0.0096,0.01 0.01562,0.01 0.0182,0.011 0.04133,0.026 0.05273,0.033 0.02101,0.014 0.03602,0.025 0.06055,0.041 0.02462,0.016 0.04137,0.026 0.0625,0.039 0.01787,0.011 0.04151,0.026 0.05273,0.033 0.0048,0 0.0086,0.01 0.01367,0.01 7.31e-4,5e-4 0.0012,0 0.002,0 0.01639,0.011 0.0271,0.017 0.04492,0.029 0.01782,0.012 0.0285,0.018 0.04492,0.029 0.0052,0 0.0097,0.01 0.01563,0.01 0.01817,0.012 0.04144,0.028 0.05273,0.035 0.006,0 0.01038,0.01 0.01563,0.01 0.0164,0.011 0.02706,0.019 0.04492,0.031 0.0084,0.01 0.01325,0.01 0.02148,0.014 2.76e-4,2e-4 0.01873,0.014 0.02148,0.016 8.3e-4,6e-4 0.0011,0 0.002,0 0.0045,0 0.0085,0.01 0.01367,0.01 0.01808,0.012 0.04153,0.028 0.05273,0.035 0.006,0 0.01051,0.01 0.01563,0.012 0.01623,0.011 0.02727,0.019 0.04492,0.031 0.01786,0.012 0.02851,0.02 0.04492,0.031 6.26e-4,5e-4 0.0017,0 0.002,0 0.0045,0 0.0099,0.01 0.01563,0.01 0.01667,0.012 0.03841,0.028 0.04883,0.035 0.0012,8e-4 0.0027,0 0.0039,0 0.004,0 0.0081,0.01 0.01172,0.01 0.0023,0 0.01532,0.012 0.01563,0.012 0.01141,0.01 0.01742,0.013 0.0293,0.022 0.01666,0.012 0.02751,0.018 0.04297,0.029 0.0055,0 0.0098,0.01 0.01563,0.012 0.01827,0.013 0.04129,0.031 0.05273,0.039 0.01962,0.014 0.03402,0.026 0.05664,0.043 0.02382,0.018 0.04021,0.028 0.06055,0.043 0.0168,0.012 0.03843,0.029 0.04883,0.037 0.02005,0.015 0.03507,0.027 0.05859,0.045 0.03772,0.028 0.07134,0.052 0.0957,0.07 0.0034,0 0.01078,0.01 0.01367,0.01 0.0058,0 0.01017,0.01 0.01563,0.012 0.01523,0.012 0.02453,0.02 0.04102,0.033 0.01318,0.01 0.02068,0.016 0.0332,0.025 2.63e-4,2e-4 0.01172,0.01 0.01367,0.01 0.0036,0 0.0064,0.01 0.0098,0.01 9.01e-4,7e-4 9.61e-4,0 0.002,0 0.01651,0.013 0.03866,0.029 0.04883,0.037 0.0056,0 0.0094,0.01 0.01367,0.012 0.0021,0 0.01338,0.01 0.01367,0.01 0.01194,0.01 0.01873,0.016 0.03125,0.025 0.02211,0.017 0.0374,0.028 0.05664,0.043 0.01767,0.014 0.03957,0.032 0.05078,0.041 0.0059,0 0.0096,0.01 0.01563,0.012 0.01465,0.012 0.02326,0.02 0.03906,0.033 0.01712,0.014 0.02727,0.023 0.04297,0.035 0.0048,0 0.0081,0.01 0.01367,0.012 0.01655,0.013 0.03851,0.031 0.04883,0.039 0.0193,0.016 0.03405,0.03 0.05664,0.049 0.02204,0.018 0.03762,0.029 0.05664,0.045 0.01678,0.014 0.03846,0.033 0.04883,0.041 0.0055,0 0.0091,0.01 0.01367,0.012 0.01518,0.013 0.02446,0.023 0.04102,0.037 0.01594,0.014 0.02628,0.021 0.04102,0.033 0.0043,0 0.0077,0.01 0.01172,0.01 0.001,10e-4 7.84e-4,0 0.002,0 0.01664,0.014 0.03854,0.032 0.04883,0.041 0.0055,0 0.0091,0.01 0.01367,0.012 0.01501,0.013 0.02465,0.023 0.04102,0.037 0.01965,0.017 0.03144,0.028 0.04883,0.043 0.0019,0 0.0035,0 0.0059,0.01 0.02098,0.019 0.06146,0.054 0.101562,0.09 0.01597,0.014 0.0263,0.022 0.04102,0.035 0.0042,0 0.0084,0.01 0.01367,0.012 0.01626,0.014 0.03663,0.034 0.04687,0.043 0.0055,0 0.0084,0.01 0.01367,0.012 0.01458,0.013 0.0232,0.023 0.03906,0.037 0.01531,0.014 0.02488,0.022 0.03906,0.035 0.0051,0.01 0.01032,0.01 0.01563,0.014 0.0035,0 0.0065,0.01 0.0098,0.01 0.01254,0.012 0.03233,0.029 0.05078,0.047 0.01401,0.013 0.02193,0.023 0.03711,0.037 0.01599,0.015 0.02636,0.023 0.04102,0.037 0.0051,0 0.0089,0.01 0.01367,0.014 0.01178,0.012 0.03646,0.033 0.05664,0.053 0.01513,0.015 0.02434,0.025 0.04102,0.041 0.02146,0.021 0.03635,0.033 0.05469,0.051 0.01493,0.014 0.03352,0.034 0.04297,0.043 0.0053,0.01 0.009,0.01 0.01367,0.014 0.0024,0 0.01925,0.017 0.01953,0.018 0.008,0.01 0.01129,0.013 0.01953,0.021 0.01982,0.02 0.03347,0.032 0.05078,0.049 0.01629,0.016 0.03655,0.037 0.04687,0.047 0.01691,0.017 0.02939,0.031 0.04883,0.051 0.0081,0.01 0.0136,0.012 0.02148,0.02 2.26e-4,3e-4 0.01539,0.017 0.01758,0.02 0.0044,0 0.0087,0.01 0.01367,0.014 0.01442,0.015 0.0341,0.034 0.04297,0.043 0.01759,0.018 0.03011,0.033 0.05078,0.055 0.01606,0.017 0.02641,0.026 0.04102,0.041 0.01949,0.02 0.04123,0.045 0.05273,0.057 0.005,0.01 0.0094,0.01 0.01367,0.014 0.01382,0.015 0.022,0.025 0.03711,0.041 0.01434,0.015 0.02383,0.023 0.03711,0.037 0.01748,0.019 0.0349,0.038 0.04687,0.051 0.0024,0 0.0077,0.01 0.0098,0.01 0.0051,0.01 0.0086,0.011 0.01367,0.016 0.01295,0.014 0.02114,0.024 0.03516,0.039 0.01452,0.016 0.02373,0.025 0.03711,0.039 0.0046,0.01 0.0069,0.01 0.01172,0.014 0.0148,0.016 0.03382,0.037 0.04297,0.047 0.0049,0.01 0.0077,0.01 0.01172,0.014 0.01309,0.015 0.0209,0.025 0.03516,0.041 0.01951,0.022 0.03409,0.036 0.05078,0.055 0.01393,0.015 0.03237,0.037 0.04102,0.047 0.01633,0.019 0.02782,0.033 0.04687,0.055 0.01433,0.016 0.02393,0.026 0.03711,0.041 0.0037,0 0.0071,0.01 0.01172,0.014 0.01427,0.016 0.03201,0.039 0.04102,0.049 0.0048,0.01 0.0091,0.01 0.01367,0.014 0.01255,0.015 0.01959,0.025 0.0332,0.041 0.01413,0.017 0.02411,0.026 0.03711,0.041 0.0037,0 0.0072,0.01 0.01172,0.014 0.0045,0.01 0.01536,0.018 0.02148,0.025 0.0056,0.01 0.0153,0.019 0.01953,0.023 0.01577,0.019 0.02658,0.035 0.04492,0.057 0.0188,0.023 0.0327,0.037 0.04883,0.057 0.01349,0.016 0.03056,0.039 0.03906,0.049 0.0047,0.01 0.0076,0.01 0.01172,0.014 0.0127,0.016 0.02127,0.026 0.03516,0.043 0.01282,0.016 0.02129,0.024 0.0332,0.039 0.0045,0.01 0.0072,0.01 0.01172,0.016 0.0142,0.017 0.0322,0.04 0.04102,0.051 0.01503,0.019 0.02562,0.034 0.04297,0.057 0.0098,0.012 0.01601,0.019 0.02539,0.031 1.96e-4,3e-4 0.0082,0.012 0.0098,0.014 0.0032,0 0.0074,0.01 0.01172,0.014 0.01275,0.016 0.02928,0.039 0.03711,0.049 0.0044,0.01 0.0067,0.01 0.0098,0.012 0.0037,0 0.0059,0.01 0.0098,0.014 0.0097,0.013 0.01518,0.02 0.02539,0.033 0.01278,0.016 0.02137,0.026 0.0332,0.041 0.0039,0.01 0.0074,0.01 0.01172,0.016 0.01345,0.017 0.03051,0.04 0.03906,0.051 0.0046,0.01 0.0071,0.01 0.01172,0.016 0.01124,0.015 0.01716,0.025 0.0293,0.041 0.01346,0.018 0.02286,0.029 0.03516,0.045 0.003,0 0.0049,0.01 0.0078,0.012 8.72e-4,0 9.67e-4,0 0.002,0 0.01234,0.016 0.0294,0.039 0.03711,0.049 0.0149,0.02 0.02545,0.037 0.04297,0.061 0.01664,0.023 0.02847,0.037 0.04297,0.057 0.01338,0.018 0.03063,0.042 0.03906,0.053 0.0044,0.01 0.0074,0.01 0.01172,0.016 0.01096,0.015 0.01746,0.026 0.0293,0.043 0.0084,0.012 0.01336,0.018 0.02148,0.029 1.87e-4,3e-4 0.01015,0.013 0.01172,0.016 0.003,0 0.005,0.01 0.0078,0.012 8.47e-4,0 9.96e-4,0 0.002,0 0.01192,0.017 0.02773,0.038 0.03516,0.049 0.0027,0 0.0049,0.01 0.0078,0.012 7.61e-4,10e-4 0.0012,0 0.002,0 2.19e-4,3e-4 0.0015,0 0.002,0 0.01141,0.016 0.0188,0.027 0.03125,0.045 0.01231,0.018 0.0199,0.029 0.03125,0.045 0.0034,0.01 0.0077,0.01 0.01172,0.016 0.01229,0.017 0.02735,0.042 0.03516,0.053 0.0042,0.01 0.0077,0.01 0.01172,0.016 0.002,0 0.01539,0.021 0.01563,0.022 0.0056,0.01 0.008,0.013 0.01367,0.022 0.0099,0.015 0.01599,0.023 0.02539,0.037 0.002,0 0.0033,0.01 0.0039,0.01 0.0033,0.01 0.0078,0.01 0.01172,0.016 0.01209,0.018 0.02758,0.042 0.03516,0.053 0.0041,0.01 0.0061,0.01 0.0098,0.016 0.0108,0.016 0.01755,0.027 0.0293,0.045 0.01602,0.024 0.02723,0.04 0.04102,0.061 0.01174,0.018 0.02583,0.042 0.0332,0.053 0.01349,0.021 0.02327,0.038 0.03906,0.062 0.01574,0.025 0.02748,0.04 0.04102,0.061 0.01154,0.018 0.02597,0.042 0.0332,0.053 0.0039,0.01 0.0063,0.01 0.0098,0.016 0.01054,0.017 0.01584,0.028 0.02734,0.047 0.01128,0.018 0.01888,0.028 0.0293,0.045 0.0034,0.01 0.0046,0.011 0.0078,0.016 4.58e-4,8e-4 0.0015,0 0.002,0 0.01127,0.018 0.02615,0.042 0.0332,0.053 0.01284,0.021 0.02212,0.038 0.03711,0.062 0.01085,0.018 0.01732,0.028 0.02734,0.045 8.29e-4,0 0.0016,0 0.002,0 0.0028,0 0.0062,0.01 0.0098,0.014 0.01082,0.018 0.02455,0.042 0.03125,0.053 0.0037,0.01 0.0069,0.011 0.0098,0.016 0.01037,0.018 0.01598,0.03 0.02734,0.049 0.01412,0.024 0.0228,0.04 0.03516,0.061 4.47e-4,8e-4 0.0015,0 0.002,0 0.01117,0.019 0.02612,0.043 0.0332,0.055 0.0038,0.01 0.0061,0.012 0.0098,0.018 0.0094,0.016 0.01521,0.027 0.02539,0.045 0.0058,0.01 0.01,0.015 0.01563,0.025 1.42e-4,3e-4 0.01022,0.021 0.01172,0.023 0.003,0.01 0.0063,0.01 0.0098,0.016 0.01054,0.018 0.02475,0.043 0.03125,0.055 0.0035,0.01 0.0051,0.01 0.0078,0.014 0.01008,0.018 0.01625,0.031 0.02734,0.051 0.0084,0.015 0.01356,0.023 0.02148,0.037 0.0058,0.01 0.01038,0.018 0.01563,0.027 0.01004,0.018 0.02296,0.041 0.0293,0.053 0.0014,0 0.0024,0.01 0.0039,0.01 0.0016,0 0.0022,0.01 0.0039,0.01 4.57e-4,8e-4 0.0023,0 0.0039,0.01 0.0087,0.016 0.01406,0.026 0.02344,0.043 0.0095,0.017 0.01652,0.027 0.02539,0.043 0.0034,0.01 0.0064,0.011 0.0098,0.018 0.01107,0.02 0.0242,0.046 0.03125,0.059 0.01112,0.022 0.01847,0.038 0.03125,0.062 0.0069,0.013 0.01097,0.021 0.01758,0.033 0.0011,0 8.95e-4,0 0.002,0.01 0.0023,0 0.005,0.01 0.0059,0.012 0.0025,0.01 0.0065,0.011 0.0098,0.018 0.0092,0.017 0.02169,0.042 0.02734,0.053 0.0032,0.01 0.0057,0.01 0.0078,0.014 0.0011,0 0.0057,0.011 0.0059,0.012 0.0079,0.015 0.01116,0.025 0.01953,0.041 0.01358,0.027 0.02352,0.044 0.03516,0.066 0.0095,0.018 0.02127,0.043 0.02734,0.055 0.0034,0.01 0.0065,0.012 0.0098,0.018 0.0088,0.018 0.01381,0.029 0.02344,0.049 0.02408,0.048 0.0473,0.097 0.06055,0.1231 7.81e-4,0 0.0013,0 0.002,0 0.01008,0.021 0.0178,0.037 0.0293,0.06 0.0091,0.019 0.01504,0.03 0.02344,0.047 0.0026,0.01 0.0048,0.011 0.0078,0.018 0.0094,0.019 0.02147,0.045 0.02734,0.057 0.0031,0.01 0.0051,0.012 0.0078,0.018 0.0082,0.018 0.01253,0.03 0.02148,0.049 0.0095,0.02 0.01672,0.032 0.02539,0.051 0.0019,0 0.0021,0.01 0.0039,0.012 6.57e-4,0 0.0012,0 0.002,0 0.01155,0.026 0.03445,0.076 0.05664,0.125 0.0082,0.018 0.01387,0.028 0.02148,0.045 0.0027,0.01 0.0049,0.011 0.0078,0.018 0.0095,0.021 0.02136,0.048 0.02734,0.061 0.0096,0.022 0.01623,0.041 0.02734,0.066 0.0059,0.014 0.01,0.02 0.01563,0.033 0.0058,0.013 0.0085,0.023 0.01367,0.035 0.0081,0.019 0.01839,0.043 0.02344,0.055 0.01,0.024 0.01745,0.042 0.0293,0.07 0.01122,0.026 0.01956,0.043 0.0293,0.066 0.0012,0 0.0028,0.01 0.0039,0.01 0.01111,0.028 0.02789,0.071 0.04687,0.1172 0.0081,0.02 0.01398,0.032 0.02148,0.051 0.0022,0.01 0.0052,0.011 0.0078,0.018 0.008,0.02 0.0184,0.046 0.02344,0.059 0.0027,0.01 0.0035,0.01 0.0059,0.016 0.0074,0.019 0.01137,0.032 0.01953,0.053 0.0076,0.019 0.01249,0.031 0.01953,0.049 0.0024,0.01 0.0053,0.011 0.0078,0.018 0.0029,0.01 0.0053,0.015 0.0078,0.021 0.0056,0.015 0.0138,0.036 0.02148,0.057 0.0068,0.018 0.01016,0.031 0.01758,0.051 0.0059,0.016 0.01,0.024 0.01563,0.039 1.03e-4,3e-4 0.005,0.011 0.0059,0.014 0.0021,0.01 0.0038,0.01 0.0059,0.016 2.26e-4,7e-4 -2.39e-4,0 0,0 0.007,0.019 0.01709,0.043 0.02148,0.055 0.0025,0.01 0.004,0.013 0.0059,0.018 9.49e-4,0 0.0057,0.015 0.0059,0.016 0.0054,0.015 0.008,0.024 0.01367,0.039 0.0098,0.026 0.01686,0.043 0.02539,0.066 0.0077,0.021 0.01652,0.047 0.02148,0.061 0.0026,0.01 0.005,0.013 0.0078,0.019 0.0061,0.017 0.0091,0.028 0.01563,0.047 0.0062,0.018 0.0098,0.028 0.01562,0.045 9.74e-4,0 0.0016,0.01 0.002,0.01 0.0019,0.01 0.0036,0.011 0.0059,0.018 0.007,0.02 0.01708,0.046 0.02148,0.059 0.0024,0.01 0.0038,0.012 0.0059,0.018 0.001,0 0.0077,0.021 0.0078,0.022 0.004,0.012 0.0056,0.019 0.0098,0.031 0.0066,0.02 0.01145,0.031 0.01758,0.049 0.0021,0.01 0.0037,0.013 0.0059,0.02 0.007,0.021 0.01514,0.048 0.01953,0.06 0.0023,0.01 0.0038,0.012 0.0059,0.018 0.0059,0.019 0.0092,0.031 0.01563,0.051 0.0053,0.016 0.0087,0.025 0.01367,0.041 0.0011,0 8.39e-4,0.01 0.002,0.01 7.64e-4,0 0.0017,0 0.002,0.01 0.0014,0 0.0038,0.01 0.0059,0.016 0.0061,0.019 0.01375,0.045 0.01758,0.057 0.0022,0.01 0.0042,0.013 0.0059,0.018 0.0062,0.02 0.0088,0.033 0.01563,0.055 0.01614,0.051 0.03194,0.1027 0.04102,0.1308 0.0023,0.01 0.0054,0.012 0.0078,0.02 0.0053,0.018 0.008,0.03 0.01367,0.049 0.0064,0.022 0.0098,0.035 0.01563,0.055 0.0082,0.028 0.01664,0.06 0.02148,0.076 0.0021,0.01 0.004,0.012 0.0059,0.018 9.11e-4,0 0.0077,0.021 0.0078,0.022 0.0034,0.012 0.0043,0.019 0.0078,0.031 0.0058,0.02 0.01028,0.032 0.01563,0.051 0.0016,0.01 0.0024,0.01 0.0039,0.016 3.19e-4,0 -3.54e-4,0 0,0 0.0074,0.028 0.0212,0.079 0.03516,0.1308 0.0054,0.02 0.0086,0.032 0.01367,0.051 0.0015,0.01 0.0041,0.013 0.0059,0.02 0.0056,0.021 0.01216,0.048 0.01563,0.061 6.81e-4,0 0.0012,0 0.002,0.01 8.54e-4,0 0.0011,0.01 0.002,0.01 6.6e-5,2e-4 -1.28e-4,0 0,0 0.0048,0.019 0.0085,0.03 0.01367,0.051 0.0055,0.022 0.0086,0.035 0.01367,0.055 0.0072,0.028 0.01526,0.062 0.01953,0.078 0.0018,0.01 0.0043,0.012 0.0059,0.018 0.0048,0.02 0.0065,0.033 0.01172,0.055 0.0052,0.021 0.0089,0.033 0.01367,0.053 9.9e-5,5e-4 -5.7e-5,0 0,0 0.0011,0.01 0.0023,0.01 0.0039,0.016 0.0038,0.017 0.01276,0.051 0.01953,0.08 0.0044,0.019 0.0069,0.032 0.01172,0.053 0.01063,0.046 0.02025,0.085 0.02734,0.1152 0.0011,0 0.003,0.014 0.0039,0.018 0.0017,0.01 0.0021,0.011 0.0039,0.018 0.0041,0.019 0.0053,0.032 0.0098,0.053 0.01091,0.05 0.021,0.098 0.02734,0.127 3e-4,0 0.0017,0 0.002,0.01 0.0015,0.01 0.0026,0.01 0.0039,0.016 0.0042,0.02 0.0052,0.034 0.0098,0.057 0.0042,0.02 0.0078,0.032 0.01172,0.051 0.0012,0.01 0.0026,0.012 0.0039,0.019 2.65e-4,0 -2.61e-4,0 0,0 0.0054,0.029 0.01564,0.077 0.02539,0.1289 0.0043,0.023 0.0078,0.036 0.01172,0.057 8.06e-4,0 0.0012,0.01 0.002,0.012 3.41e-4,0 -4.05e-4,0 0,0.01 0.0038,0.02 0.0093,0.046 0.01172,0.058 0.0013,0.01 0.0029,0.013 0.0039,0.018 0.0037,0.021 0.0056,0.034 0.0098,0.057 0.0037,0.02 0.0063,0.032 0.0098,0.051 5.6e-5,5e-4 -3.5e-5,0 0,0 9.27e-4,0.01 0.0028,0.01 0.0039,0.018 9.78e-4,0.01 10e-4,0.011 0.002,0.016 0.0049,0.03 0.01166,0.072 0.01953,0.1191 0.0034,0.02 0.0066,0.032 0.0098,0.051 0.0042,0.025 0.0088,0.051 0.01172,0.068 6.64e-4,0 0.0014,0.012 0.002,0.016 0.0036,0.024 0.0056,0.043 0.0098,0.07 0.0045,0.03 0.0079,0.049 0.01172,0.074 0.0031,0.02 0.0059,0.048 0.0078,0.061 6.7e-4,0 0.0014,0.01 0.002,0.01 3.03e-4,0 0.0016,0 0.002,0.01 4.08e-4,0 0.0019,0.017 0.002,0.018 0.0022,0.015 0.0035,0.025 0.0059,0.041 0.003,0.021 0.005,0.034 0.0078,0.053 0.0034,0.023 0.0073,0.046 0.0098,0.062 7.68e-4,0.01 0.0013,0.015 0.002,0.02 0.0031,0.025 0.0041,0.044 0.0078,0.072 0.0069,0.054 0.0137,0.1043 0.01758,0.1329 6.72e-4,0 0.0014,0.01 0.002,0.014 2.53e-4,0 0.0017,0 0.002,0.01 0.0023,0.02 0.0033,0.033 0.0059,0.055 0.0024,0.02 0.0036,0.032 0.0059,0.051 2.5e-5,4e-4 -1.9e-5,0 0,0 5.58e-4,0.01 0.0013,0.012 0.002,0.02 0.0028,0.029 0.0081,0.081 0.01367,0.1348 0.0028,0.027 0.0053,0.045 0.0078,0.068 1.21e-4,0 -1.38e-4,0 0,0 0.0025,0.029 0.0087,0.083 0.01367,0.1367 0.0012,0.013 0.0027,0.02 0.0039,0.033 0.0012,0.013 8.62e-4,0.022 0.002,0.033 1.5e-4,0 -1.8e-4,0 0,0.01 0.002,0.021 0.0046,0.049 0.0059,0.062 7.04e-4,0.01 0.0013,0.011 0.002,0.018 0.0016,0.02 0.0021,0.034 0.0039,0.057 0.0022,0.027 0.0039,0.044 0.0059,0.068 4e-5,7e-4 -4.3e-5,0 0,0 0.0017,0.029 0.0062,0.083 0.0098,0.1367 0.0014,0.022 0.0026,0.035 0.0039,0.055 3.35e-4,0.01 -3.21e-4,0.01 0,0.014 8.9e-5,0 -1.06e-4,0 0,0.01 0.0014,0.021 0.003,0.048 0.0039,0.061 0.0013,0.025 0.0023,0.045 0.0039,0.074 0.0012,0.022 0.0028,0.036 0.0039,0.057 0.0016,0.029 0.0029,0.063 0.0039,0.08 4.41e-4,0.01 0.0015,0.011 0.002,0.018 8.64e-4,0.02 9.83e-4,0.033 0.002,0.055 8.88e-4,0.02 0.0011,0.032 0.002,0.051 -5e-6,4e-4 -2e-6,0 0,0 5.8e-5,0.01 0.0018,0.012 0.002,0.02 4.31e-4,0.01 -3.85e-4,0.019 0,0.027 3.92e-4,0.016 0.0014,0.036 0.002,0.057 5.34e-4,0.019 -6.04e-4,0.032 0,0.053 8.41e-4,0.029 0.0031,0.047 0.0039,0.072 2.68e-4,0.01 -2.42e-4,0.018 0,0.025 2.15e-4,0.015 0.0016,0.035 0.002,0.055 3.46e-4,0.02 -4.1e-4,0.034 0,0.057 5.3e-4,0.029 0.0014,0.048 0.002,0.072 4.35e-4,0.022 -3.28e-4,0.049 0,0.062 1.45e-4,0.025 -2.23e-4,0.045 0,0.074 1.82e-4,0.024 -1.98e-4,0.039 0,0.061 6e-6,7e-4 -7e-6,0 0,0 -3.75e-4,0.033 3.76e-4,0.045 0,0.08 -4.97e-4,0.035 -0.0015,0.047 -0.002,0.084 -3.86e-4,0.028 3.63e-4,0.037 0,0.064 -3.6e-5,0 3.5e-5,0.01 0,0.01 -6.8e-5,0 6.8e-5,0 0,0.01 -1.72e-4,0.013 -0.0018,0.019 -0.002,0.031 -2.13e-4,0.016 1.91e-4,0.026 0,0.041 -4.6e-5,0 4.4e-5,0.01 0,0.01 -0.0011,0.035 -0.0028,0.049 -0.0039,0.086 -0.001,0.03 -8.9e-4,0.041 -0.002,0.072 -1.72e-4,0.01 1.72e-4,0.01 0,0.012 -2.21e-4,0.01 2.16e-4,0.01 0,0.018 -0.0011,0.028 -0.0028,0.037 -0.0039,0.066 -0.0011,0.029 -8.5e-4,0.038 -0.002,0.066 -2.14e-4,0.01 2.04e-4,0.011 0,0.017 -4.6e-5,0 4.5e-5,0 0,0 -8.33e-4,0.019 -0.0011,0.025 -0.002,0.043 -1.37e-4,0 1.29e-4,0.01 0,0.014 -2.31e-4,0.01 -0.0017,0.01 -0.002,0.016 -1.25e-4,0 1.25e-4,0 0,0.01 -1.37e-4,0 1.33e-4,0.01 0,0.01 -1.07e-4,0 1.04e-4,0.01 0,0.01 -3.32e-4,0.01 -0.0016,0.01 -0.002,0.016 -2.05e-4,0 1.99e-4,0.01 0,0.012 -2e-4,0 1.95e-4,0.01 0,0.012 -4.6e-5,9e-4 4.5e-5,0 0,0 -5.24e-4,0.011 -0.0014,0.015 -0.002,0.025 -4.5e-5,8e-4 4.6e-5,0 0,0 -8.75e-4,0.014 -0.0011,0.02 -0.002,0.035 -3.51e-4,0.01 -0.0016,0.01 -0.002,0.014 -9.04e-4,0.015 -0.001,0.02 -0.002,0.035 -6.63e-4,0.011 -0.0013,0.014 -0.002,0.025 -0.0016,0.024 -0.0023,0.032 -0.0039,0.057 -4.46e-4,0.01 4.52e-4,0.01 0,0.016 -2.76e-4,0 -0.0017,0.01 -0.002,0.01 -0.0017,0.025 -0.0022,0.033 -0.0039,0.059 -2.06e-4,0 2.05e-4,0 0,0.01 -0.0018,0.026 -0.0022,0.035 -0.0039,0.061 -5.02e-4,0.01 -0.0014,0.01 -0.002,0.016 -0.0016,0.023 -0.0025,0.034 -0.0039,0.055 -3.62e-4,0 3.58e-4,0.01 0,0.012 -5.99e-4,0.01 -0.0014,0.01 -0.002,0.018 -0.0017,0.021 -0.0023,0.028 -0.0039,0.049 -5.4e-5,8e-4 5.5e-5,0 0,0 -5.73e-4,0.01 -0.0014,0.02 -0.002,0.027 -1.02e-4,0 1.02e-4,0 0,0 -9.44e-4,0.012 -0.001,0.018 -0.002,0.029 -5.71e-4,0.01 -0.0014,0.01 -0.002,0.016 -0.0015,0.015 -0.0024,0.023 -0.0039,0.039 -9.08e-4,0.01 -0.0011,0.013 -0.002,0.023 -3.66e-4,0 3.73e-4,0.01 0,0.01 -0.002,0.022 -0.0038,0.029 -0.0059,0.051 -0.0011,0.012 -9.21e-4,0.018 -0.002,0.029 -7.88e-4,0.01 -0.0012,0.011 -0.002,0.019 -7.02e-4,0.01 -0.0013,0.01 -0.002,0.018 -4.64e-4,0 -0.0015,0.01 -0.002,0.012 -1.66e-4,0 1.66e-4,0 0,0 -8.31e-4,0.01 -0.0011,0.013 -0.002,0.022 -3.42e-4,0 3.43e-4,0 0,0.01 -6.55e-4,0.01 -0.0013,0.011 -0.002,0.018 -0.0016,0.016 -0.0024,0.022 -0.0039,0.037 -0.0013,0.011 -0.0026,0.016 -0.0039,0.027 -0.0026,0.023 -0.0033,0.031 -0.0059,0.055 -0.0017,0.015 -0.0022,0.02 -0.0039,0.035 -0.0024,0.021 -0.0034,0.028 -0.0059,0.049 -0.0017,0.015 -0.0022,0.02 -0.0039,0.035 -0.0025,0.021 -0.0034,0.028 -0.0059,0.049 -0.0018,0.015 -0.0021,0.02 -0.0039,0.035 -0.0026,0.021 -0.0033,0.028 -0.0059,0.049 -0.0017,0.014 -0.0023,0.021 -0.0039,0.035 -0.0018,0.014 -0.0022,0.019 -0.0039,0.033 -7.7e-4,0.01 -0.0012,0.01 -0.002,0.014 -9.8e-5,8e-4 9.8e-5,0 0,0 -9.96e-4,0.01 -0.003,0.015 -0.0039,0.023 -0.0033,0.025 -0.0044,0.033 -0.0078,0.059 -0.0011,0.01 -8.44e-4,0.011 -0.002,0.019 -0.0033,0.025 -0.0049,0.04 -0.0078,0.062 -0.0019,0.015 -0.004,0.021 -0.0059,0.035 -8.1e-5,6e-4 8.1e-5,0 0,0 -5.73e-4,0 -0.0014,0.01 -0.002,0.014 -0.0016,0.011 -0.0022,0.016 -0.0039,0.027 -0.0041,0.027 -0.0055,0.038 -0.0098,0.067 -0.0014,0.01 -0.0025,0.012 -0.0039,0.021 -0.0018,0.012 -0.0022,0.016 -0.0039,0.027 -0.0019,0.012 -0.002,0.017 -0.0039,0.029 -0.0017,0.011 -0.0022,0.014 -0.0039,0.025 -0.0043,0.029 -0.0079,0.044 -0.01172,0.07 -9.39e-4,0.01 -0.001,0.01 -0.002,0.014 -0.0026,0.016 -0.0033,0.021 -0.0059,0.037 -0.02086,0.1313 -0.04241,0.2622 -0.04883,0.3047 -4.94e-4,0 4.02e-4,0.01 0,0.01 0,0 0.270091,0.053 0.466797,0.092 0.08489,0.017 0.201166,0.041 0.201172,0.041 1.8e-5,0 0.0015,-0.01 0.002,-0.012 8.77e-4,0 0.0016,-0.01 0.002,-0.01 0.0012,-0.01 0.0028,-0.015 0.0039,-0.022 h 5.033203 a 0.34103761,0.34103761 0 0 0 0.337891,-0.2988 c 0.113703,-0.8889 0.180275,-1.7858 0.189453,-2.6836 -1.83e-4,-3.0104 -0.599959,-6.0175 -1.751953,-8.7988 -1.152267,-2.7819 -2.857153,-5.3318 -4.986328,-7.461 -2.129174,-2.1291 -4.679019,-3.834 -7.460938,-4.9863 -2.781875,-1.1522 -5.789692,-1.752 -8.800781,-1.752 a 0.34103761,0.34103761 0 0 0 -0.002,0 z m 16.765625,25.8926 c -0.0045,0.013 -0.01062,0.075 -0.0039,0.047 6.51e-4,-0.01 0.0033,-0.039 0.0039,-0.047 z m -17.494141,-20.5898 c -0.002,6e-4 -0.0098,0 -0.01172,0 0.0059,-3e-4 0.0099,0 0.01172,0 z m -0.410156,0.023 c -0.002,7e-4 -0.01107,0 -0.01367,0 0.0068,-6e-4 0.01367,0 0.01367,0 z m -0.822266,0.078 c 0,0 0,0 0,0 -0.0018,2e-4 -0.0041,-2e-4 -0.0059,0 0.0023,-3e-4 0.0059,0 0.0059,0 z m -0.08203,0.01 c 0,0 0,0 0,0 -0.0013,10e-5 -0.0046,-2e-4 -0.0059,0 0.0021,-3e-4 0.0059,0 0.0059,0 z m -0.08203,0.01 c 0,0 0,0 0,0 -0.0017,2e-4 -0.004,-2e-4 -0.0059,0 0.0022,-3e-4 0.0059,0 0.0059,0 z m 2.126953,4.998 c -0.864931,0 -1.728335,0.099 -2.572266,0.2774 a 0.34103761,0.34103761 0 0 0 -0.271484,0.3339 v 4.9629 c -0.0012,10e-4 -0.0078,0.01 -0.0078,0.01 0,0 0.0074,0.013 0.0078,0.014 v 0.1172 h 0.06641 c 0.08788,0.1544 0.247967,0.4355 0.248047,0.4355 2.09e-4,0 0.02545,-0.01 0.0293,-0.01 0.0077,0 0.01182,0 0.01563,-0.01 0.01057,0 0.03621,-0.014 0.05273,-0.02 h 0.0059 0.0039 c 0.0038,0 0.0077,0 0.01172,0 0.0074,0 0.02959,-0.01 0.04101,-0.014 0.01475,-0.01 0.02141,-0.01 0.03711,-0.014 0.02634,-0.01 0.04455,-0.014 0.07617,-0.025 0.02377,-0.01 0.03548,-0.012 0.05664,-0.02 8.83e-4,-3e-4 0.0011,0 0.002,0 0.0025,-8e-4 0.0052,0 0.0078,0 0.0024,-8e-4 0.0034,0 0.0059,0 0.02493,-0.01 0.0407,-0.014 0.07031,-0.024 0.007,0 0.01319,0 0.01953,-0.01 0.0083,0 0.01842,-0.01 0.02539,-0.01 0.0117,0 0.01703,-0.01 0.0293,-0.01 0.0012,-4e-4 0.0026,4e-4 0.0039,0 0.0313,-0.01 0.04798,-0.015 0.07422,-0.024 0.0042,0 0.0073,0 0.01172,0 0.0035,-10e-4 0.0061,-9e-4 0.0098,0 0.0065,0 0.0093,0 0.01563,-0.01 0.01538,0 0.02274,-0.01 0.03906,-0.01 0.01816,-0.01 0.02609,-0.01 0.04297,-0.014 0.0053,0 0.0085,0 0.01367,0 0.0065,0 0.01149,0 0.01758,0 0.0083,0 0.01147,0 0.01953,-0.01 0.02156,-0.01 0.03262,-0.01 0.05664,-0.016 0.01168,0 0.02341,-0.01 0.0332,-0.01 0.0068,0 0.01774,0 0.02344,-0.01 6e-4,-2e-4 0.0013,10e-5 0.002,0 0.0027,-6e-4 0.0042,0 0.0059,0 0.0042,0 0.0077,-9e-4 0.01172,0 0.0025,-7e-4 0.0034,0 0.0059,0 0.0066,0 0.0092,0 0.01563,0 0.0019,-4e-4 0.0057,0 0.0078,0 0.0053,0 0.01287,0 0.01758,0 0.01084,0 0.01606,0 0.02734,-0.01 0.0048,0 0.0085,0 0.01367,0 6.15e-4,-2e-4 0.0013,10e-5 0.002,0 0.02323,-0.01 0.03624,-0.01 0.0625,-0.014 7.97e-4,-10e-5 0.0031,0 0.0039,0 0.0094,0 0.01936,0 0.02734,-0.01 0.01161,0 0.02792,0 0.04297,-0.01 0.03325,-0.01 0.05058,-0.01 0.07813,-0.016 0.03184,-0.01 0.04945,-0.012 0.07617,-0.018 7.99e-4,-2e-4 0.0012,1e-4 0.002,0 5.17e-4,-10e-5 0.0015,1e-4 0.002,0 0.0074,0 0.0148,0 0.02148,0 0.003,-7e-4 0.0069,0 0.0098,0 0.0023,-5e-4 0.0056,0 0.0078,0 0.0015,-3e-4 0.0024,2e-4 0.0039,0 0.0085,0 0.01765,0 0.02734,-0.01 0.01238,0 0.02132,0 0.03516,-0.01 0.01217,0 0.02783,0 0.04297,-0.01 0.0099,0 0.01386,0 0.02344,0 0.02011,0 0.03059,0 0.05274,-0.01 0.0213,0 0.03124,0 0.05078,-0.01 0.01051,0 0.01778,0 0.02734,0 0.0099,0 0.0138,0 0.02344,0 0.02241,0 0.03544,0 0.05469,-0.01 0.0089,0 0.01285,-8e-4 0.02148,0 0.0037,-6e-4 0.0082,0 0.01172,0 0.0046,-7e-4 0.01148,0 0.01563,0 0.01045,0 0.01774,0 0.02734,0 0.02533,0 0.03796,-0.01 0.06055,-0.01 0.0044,-7e-4 0.01379,0 0.01758,0 0.0041,-5e-4 0.0078,0 0.01172,0 0.0051,-6e-4 0.0109,6e-4 0.01563,0 0.01944,0 0.02954,0 0.05078,-0.01 0.0231,0 0.03379,0 0.05469,-0.01 0.0082,-8e-4 0.01387,0 0.02149,0 0.02818,0 0.04607,0 0.08008,-0.01 0.0048,-4e-4 0.0092,0 0.01367,0 0.0077,-7e-4 0.01679,0 0.02344,0 0.0061,-5e-4 0.0097,5e-4 0.01563,0 0.0045,-4e-4 0.0074,0 0.01172,0 0.0039,-2e-4 0.0076,2e-4 0.01172,0 0.0041,-2e-4 0.0074,2e-4 0.01172,0 0.0036,-2e-4 0.0061,0 0.0098,0 0.01411,-5e-4 0.0367,0 0.05664,0 0.01408,-8e-4 0.01977,0 0.0332,0 0.01218,-3e-4 0.02907,0 0.04492,0 0.0207,0 0.04429,-10e-4 0.05859,0 0.0073,-3e-4 0.01266,3e-4 0.01953,0 0.01233,-4e-4 0.01749,0 0.0293,0 0.01098,-3e-4 0.01704,4e-4 0.02734,0 0.0062,0 0.0127,10e-5 0.01953,0 0.03409,-5e-4 0.05184,0 0.08008,0 0.02922,-3e-4 0.04509,3e-4 0.07031,0 0.01821,3e-4 0.03062,-3e-4 0.05078,0 0.01983,2e-4 0.03281,-2e-4 0.05078,0 0.02747,0 0.07144,0 0.117187,0 0.02209,9e-4 0.03708,0 0.05664,0 0.02094,8e-4 0.04715,0 0.06055,0 0.01927,0 0.03299,0 0.05469,0 0.04038,0 0.0761,0 0.103516,0.01 0.0046,4e-4 0.0088,-4e-4 0.01367,0 0.0182,0 0.03063,0 0.05078,0.01 0.02129,0 0.03567,0 0.05469,0 0.0081,10e-4 0.02423,0 0.03516,0 0.0079,6e-4 0.02118,0 0.02734,0 0.01873,0 0.03184,0 0.05274,0.01 0.01976,0 0.03286,0 0.05078,0.01 0.0014,10e-5 0.0026,-2e-4 0.0039,0 0.01516,0 0.04061,0 0.0625,0.01 0.01785,0 0.0311,0.01 0.05078,0.01 0.01378,0 0.02209,0 0.03516,0 0.0082,0 0.01309,0 0.01953,0 0.02574,0 0.07003,0.01 0.115234,0.018 0.01843,0 0.02999,0.01 0.04687,0.01 6.87e-4,10e-5 0.0013,-10e-5 0.002,0 0.02652,0.01 0.07038,0.013 0.115235,0.022 0.02086,0 0.0341,0.01 0.05273,0.01 0.0063,0 0.01183,0 0.01758,0 0.01152,0 0.02812,0 0.04297,0.01 0.01903,0 0.03329,0.01 0.05469,0.012 0.01216,0 0.0196,0 0.03125,0.01 0.0091,0 0.01307,0 0.01953,0 0.0056,0 0.01041,0 0.01563,0 0.02608,0.01 0.05941,0.014 0.09766,0.024 0.02057,0 0.03433,0.01 0.05273,0.012 0.02131,0 0.04669,0.012 0.06055,0.016 0.01811,0 0.03057,0.01 0.05078,0.014 0.04191,0.011 0.08107,0.021 0.107421,0.027 0.0015,4e-4 0.0045,0 0.0059,0 0.0065,0 0.01201,0 0.02148,0.01 0.01168,0 0.01902,0.01 0.03125,0.01 0.01894,0.01 0.0316,0.01 0.04883,0.014 0.02288,0.01 0.04932,0.015 0.06445,0.019 0.01682,0.01 0.02839,0.01 0.04687,0.016 0.02058,0.01 0.03439,0.01 0.05273,0.016 0.0091,0 0.01749,0.01 0.02539,0.01 0.02435,0.01 0.05086,0.018 0.08398,0.029 0.04325,0.015 0.0854,0.029 0.111328,0.037 0.01665,0.01 0.02853,0.011 0.04687,0.018 0.03283,0.012 0.05972,0.022 0.08398,0.031 0.0074,0 0.01968,0.01 0.02539,0.01 0.01748,0.01 0.02932,0.014 0.04883,0.022 0.04102,0.016 0.08032,0.031 0.105469,0.041 9.67e-4,4e-4 0.003,0 0.0039,0 0.0062,0 0.0109,0 0.01953,0.01 0.0111,0 0.01768,0.01 0.0293,0.014 0.03458,0.015 0.06326,0.029 0.08789,0.039 0.0054,0 0.0151,0.01 0.01953,0.01 0.01677,0.01 0.02823,0.015 0.04687,0.023 0.02953,0.014 0.05315,0.023 0.07617,0.033 0.02308,0.011 0.04762,0.024 0.07813,0.039 0.03595,0.017 0.06735,0.033 0.0918,0.045 0.0036,0 0.01059,0 0.01367,0.01 0.0166,0.01 0.02836,0.016 0.04687,0.025 0.01743,0.01 0.02908,0.013 0.04492,0.022 0.02114,0.011 0.04496,0.024 0.05859,0.031 0.006,0 0.0092,0.01 0.01758,0.01 0.01019,0.01 0.0167,0.01 0.02734,0.016 0.01139,0.01 0.01843,0.01 0.0293,0.016 0.0079,0 0.01184,0.01 0.01758,0.01 0.0057,0 0.01042,0.01 0.01563,0.01 0.02312,0.014 0.05061,0.031 0.08398,0.051 0.03907,0.023 0.07609,0.045 0.09961,0.059 3.44e-4,2e-4 0.0016,-2e-4 0.002,0 0.0059,0 0.0091,0.01 0.01758,0.01 0.01039,0.01 0.01645,0.011 0.02734,0.017 0.03908,0.024 0.07664,0.049 0.09961,0.062 0.0057,0 0.0095,0.01 0.01758,0.01 0.01046,0.01 0.01635,0.012 0.02734,0.019 0.03221,0.021 0.05924,0.038 0.08203,0.053 0.0043,0 0.01198,0.01 0.01562,0.01 0.0057,0 0.0087,0.01 0.01758,0.012 0.0091,0.01 0.01396,0.011 0.02344,0.018 0.0114,0.01 0.01847,0.012 0.0293,0.02 0.025,0.017 0.05134,0.037 0.06641,0.047 0.01565,0.011 0.02728,0.021 0.04492,0.033 0.03714,0.027 0.07148,0.053 0.09375,0.068 0.0056,0 0.0091,0.01 0.01758,0.012 0.0095,0.01 0.0154,0.012 0.02539,0.019 0.0096,0.01 0.01615,0.011 0.02539,0.018 0.0046,0 0.0073,0.01 0.01172,0.01 0.0012,10e-4 0.0025,0 0.0039,0 0.02073,0.017 0.05608,0.044 0.0918,0.072 0.0097,0.01 0.01611,0.012 0.02539,0.019 0.006,0 0.01,0.01 0.01563,0.014 0.02032,0.017 0.05475,0.047 0.08984,0.076 0.01589,0.013 0.0267,0.021 0.04102,0.033 0.0173,0.014 0.03758,0.032 0.04883,0.041 0.0051,0 0.0085,0.01 0.01562,0.014 0.0089,0.01 0.01408,0.013 0.02344,0.021 0.0097,0.01 0.01615,0.013 0.02539,0.022 0.0038,0 0.0061,0.01 0.0098,0.01 0.0012,0 0.0025,0 0.0039,0 0.01928,0.018 0.05232,0.049 0.08594,0.08 0.0284,0.026 0.05228,0.048 0.07227,0.066 0.0037,0 0.01056,0.01 0.01367,0.012 0.01315,0.013 0.02248,0.023 0.03711,0.037 0.0097,0.01 0.01612,0.014 0.02539,0.023 0.0058,0.01 0.0091,0.011 0.01367,0.016 0.01528,0.015 0.03304,0.034 0.04297,0.043 0.0047,0 0.0094,0.01 0.01563,0.014 0.0091,0.01 0.01389,0.016 0.02344,0.025 0.01434,0.015 0.02414,0.024 0.03711,0.037 0.0044,0 0.0076,0.01 0.01172,0.014 0.01818,0.02 0.04008,0.044 0.06641,0.072 0.01409,0.015 0.02441,0.024 0.03711,0.037 0.0064,0.01 0.01195,0.014 0.01758,0.02 0.01721,0.02 0.03518,0.042 0.05859,0.068 0.02632,0.03 0.05043,0.056 0.06836,0.076 0.0027,0 0.0075,0.01 0.0098,0.012 0.01198,0.014 0.01982,0.025 0.0332,0.041 0.02955,0.035 0.05864,0.07 0.07617,0.09 0.0044,0 0.0074,0.01 0.01367,0.016 0.0074,0.01 0.01176,0.016 0.01953,0.025 0.02864,0.036 0.05507,0.071 0.07227,0.092 0.0043,0.01 0.0072,0.01 0.01367,0.016 0.007,0.01 0.01029,0.016 0.01758,0.025 0.0076,0.01 0.01228,0.016 0.01953,0.025 0.0016,0 0.0023,0 0.0039,0.01 0.0027,0 0.0052,0.01 0.0078,0.012 0.01559,0.022 0.04163,0.057 0.06836,0.094 0.01269,0.018 0.02187,0.029 0.0332,0.045 0.01253,0.017 0.02702,0.04 0.03516,0.051 0.0039,0.01 0.0066,0.01 0.01172,0.016 0.0074,0.011 0.01167,0.018 0.01953,0.029 0.0065,0.01 0.01128,0.014 0.01758,0.024 0.0053,0.01 0.0081,0.012 0.01172,0.018 0.0037,0.01 0.0063,0.011 0.0098,0.016 0.01448,0.023 0.03187,0.05 0.05273,0.082 0.0071,0.011 0.01273,0.017 0.01953,0.027 0.0032,0 0.0048,0.01 0.0078,0.014 6.74e-4,0 0.0012,0 0.002,0 0.01378,0.023 0.03843,0.061 0.0625,0.1 0.0067,0.011 0.01115,0.017 0.01758,0.027 0.0044,0.01 0.0065,0.012 0.0098,0.018 3.12e-4,5e-4 -3.09e-4,0 0,0 0.01326,0.023 0.03584,0.061 0.05859,0.1 0.01944,0.033 0.03707,0.061 0.05078,0.084 0.0026,0 0.0076,0.012 0.0098,0.016 0.0034,0.01 0.0048,0.01 0.0098,0.018 0.006,0.011 0.0093,0.018 0.01562,0.029 0.0059,0.011 0.01,0.017 0.01563,0.027 0.004,0.01 0.0068,0.012 0.0098,0.018 0.01132,0.02 0.02365,0.045 0.03125,0.059 0.0082,0.016 0.01244,0.028 0.02148,0.045 0.0096,0.019 0.01672,0.03 0.02539,0.047 0.0024,0 0.0036,0.01 0.0059,0.014 0.01164,0.024 0.02738,0.056 0.04492,0.092 0.01488,0.031 0.02762,0.055 0.03906,0.078 0.01037,0.023 0.01968,0.047 0.0332,0.076 0.0085,0.019 0.01569,0.03 0.02344,0.047 0.0031,0.01 0.005,0.013 0.0078,0.02 0.01033,0.025 0.02424,0.053 0.03906,0.088 0.0082,0.019 0.01405,0.032 0.02148,0.049 6.08e-4,0 0.0014,0 0.002,0 0.0096,0.025 0.02462,0.063 0.04102,0.1035 0.01375,0.034 0.02695,0.063 0.03711,0.088 0.0024,0.01 0.0058,0.017 0.0078,0.022 0.0026,0.01 0.0037,0.01 0.0078,0.019 0.004,0.011 0.0055,0.018 0.0098,0.029 0.0026,0.01 0.0052,0.011 0.0078,0.018 0.0033,0.01 0.0047,0.015 0.0078,0.024 6.84e-4,0 0.0012,0.01 0.002,0.01 0.0084,0.026 0.02238,0.068 0.03711,0.1113 0.01128,0.033 0.02084,0.06 0.0293,0.084 0.0026,0.01 0.0078,0.02 0.0098,0.025 0.0058,0.018 0.0091,0.032 0.01563,0.053 0.0061,0.019 0.01003,0.031 0.01563,0.049 0.0071,0.022 0.01469,0.048 0.01953,0.062 0.005,0.017 0.0081,0.03 0.01367,0.049 0.0035,0.012 0.0064,0.019 0.0098,0.031 0.0021,0.01 0.0042,0.015 0.0059,0.022 4.15e-4,0 0.0015,0 0.002,0 0.0066,0.026 0.01615,0.067 0.02734,0.1094 0.0053,0.02 0.0089,0.033 0.01367,0.051 0.0057,0.022 0.01181,0.047 0.01562,0.061 0.0043,0.018 0.0068,0.032 0.01172,0.053 0.0091,0.038 0.01697,0.072 0.02344,0.098 0.001,0 0.003,0.012 0.0039,0.016 0.0037,0.018 0.0056,0.031 0.0098,0.051 0.0045,0.021 0.0076,0.036 0.01172,0.055 0.0045,0.021 0.0087,0.047 0.01172,0.061 0.0035,0.019 0.0058,0.032 0.0098,0.053 0.0085,0.045 0.01608,0.089 0.02148,0.1152 1.24e-4,6e-4 -1.16e-4,0 0,0 0.0026,0.017 0.0049,0.028 0.0078,0.047 0.0035,0.022 0.0066,0.037 0.0098,0.057 0.0033,0.02 0.0056,0.045 0.0078,0.059 0.0011,0.01 0.0024,0.011 0.0039,0.019 0.0018,0.013 0.0019,0.021 0.0039,0.035 0.0028,0.02 0.0053,0.033 0.0078,0.051 0.0033,0.023 0.0054,0.051 0.0078,0.066 0.0019,0.018 0.0037,0.031 0.0059,0.051 0.0023,0.021 0.0037,0.034 0.0059,0.053 0.0025,0.022 0.0041,0.048 0.0059,0.062 0.0016,0.019 0.0021,0.033 0.0039,0.055 0.0018,0.02 0.0042,0.033 0.0059,0.051 4.36e-4,0 -4.18e-4,0.01 0,0.014 0.0013,0.028 0.0035,0.063 0.0059,0.1035 0.0013,0.022 0.0027,0.035 0.0039,0.055 0.0013,0.021 0.003,0.047 0.0039,0.061 7.29e-4,0.02 0.0011,0.035 0.002,0.057 0.0018,0.046 0.0024,0.09 0.0039,0.1172 1.58e-4,0.018 -2.31e-4,0.031 0,0.051 2.36e-4,0.02 -2.65e-4,0.033 0,0.051 -3.3e-4,0.026 3.17e-4,0.042 0,0.072 -8e-6,8e-4 9e-6,0 0,0 -6.55e-4,0.028 -0.0013,0.046 -0.002,0.08 -1.6e-5,0 1.5e-5,0 0,0.01 -9.17e-4,0.028 -9.44e-4,0.045 -0.002,0.078 -4.87e-4,0.027 -0.0019,0.065 -0.002,0.08 -3.6e-5,8e-4 3.6e-5,0 0,0 -1.9e-5,7e-4 1.8e-5,0 0,0 -1.5e-5,0 -7.5e-5,0 0,0.01 1.6e-5,0 -1.61e-4,0 0,0.01 -1.95e-4,0.01 -0.0018,0.017 -0.002,0.023 -8.62e-4,0.016 -0.0011,0.023 -0.002,0.039 -2.8e-5,7e-4 2.7e-5,0 0,0 -8.8e-5,0 8.7e-5,0 0,0 -0.0019,0.027 -0.0037,0.044 -0.0059,0.076 -6.59e-4,0.013 -0.0014,0.026 -0.002,0.037 -1.03e-4,0 1.02e-4,0 0,0 -5.66e-4,0.01 -0.0014,0.014 -0.002,0.022 -6.52e-4,0.01 -0.0013,0.011 -0.002,0.019 -7.31e-4,0.01 -0.0012,0.013 -0.002,0.022 -0.0022,0.023 -0.0034,0.036 -0.0059,0.062 -1.57e-4,0 1.53e-4,0 0,0.01 -0.0014,0.016 -0.0026,0.023 -0.0039,0.037 -6.3e-4,0.01 -0.0014,0.011 -0.002,0.018 -9.18e-4,0.01 -0.001,0.013 -0.002,0.022 -4.38e-4,0 -0.0015,0.01 -0.002,0.01 -0.0031,0.026 -0.0043,0.042 -0.0078,0.072 -3.45e-4,0 3.28e-4,0.01 0,0.01 -0.0017,0.015 -0.0043,0.021 -0.0059,0.035 -0.0019,0.015 -0.002,0.022 -0.0039,0.037 -9.15e-4,0.01 -0.0011,0.016 -0.002,0.024 -6.92e-4,0.01 -0.0013,0.01 -0.002,0.014 -9.56e-4,0.01 -0.001,0.012 -0.002,0.02 -6.37e-4,0.01 -0.0013,0.01 -0.002,0.014 -5.78e-4,0 -0.0014,0.01 -0.002,0.01 -0.0044,0.028 -0.0085,0.047 -0.01367,0.082 -0.0012,0.01 -7.67e-4,0.012 -0.002,0.02 -0.0038,0.023 -0.0055,0.036 -0.0098,0.062 -5.97e-4,0 -0.0014,0.01 -0.002,0.012 -8.4e-4,0.01 -0.0012,0.012 -0.002,0.018 -5.19e-4,0 -0.0014,0 -0.002,0.01 -4.83e-4,0 -0.0015,0.01 -0.002,0.012 -7.34e-4,0 -0.0012,0.01 -0.002,0.012 -0.0014,0.01 -0.0024,0.011 -0.0039,0.019 -10e-4,0.01 -9.58e-4,0.01 -0.002,0.014 -0.0048,0.025 -0.0082,0.04 -0.01367,0.068 -0.0033,0.017 -0.0048,0.025 -0.0078,0.041 -0.0031,0.015 -0.0045,0.023 -0.0078,0.039 -10e-4,0.01 -10e-4,0.011 -0.002,0.016 -0.0052,0.024 -0.0077,0.039 -0.01367,0.066 -0.0022,0.011 -0.0041,0.022 -0.0059,0.031 -4.56e-4,0 -0.0015,0.01 -0.002,0.01 -1.57e-4,8e-4 1.56e-4,0 0,0 -0.0013,0.01 -0.0049,0.018 -0.0059,0.023 -1.46e-4,7e-4 1.44e-4,0 0,0 -7.95e-4,0 -0.0017,0.01 -0.002,0.01 -7.39e-4,0 -0.0012,0 -0.002,0.01 -0.0053,0.022 -0.0094,0.037 -0.01563,0.062 -0.0015,0.01 -0.0023,0.01 -0.0039,0.016 -0.003,0.012 -0.0044,0.021 -0.0078,0.035 -0.0045,0.019 -0.0078,0.031 -0.01172,0.047 -0.0015,0.01 -0.0045,0.012 -0.0059,0.018 -0.006,0.022 -0.0089,0.035 -0.01563,0.06 -0.0061,0.023 -0.0082,0.034 -0.01367,0.055 -0.0022,0.01 -0.0039,0.014 -0.0059,0.022 -4.83e-4,0 -0.0015,0 -0.002,0 -0.0025,0.01 -0.0034,0.013 -0.0059,0.022 -0.0013,0 -0.0028,0.011 -0.0039,0.016 -0.0035,0.013 -0.0066,0.02 -0.0098,0.031 -0.0014,0 -0.0025,0.01 -0.0039,0.012 -0.0064,0.022 -0.0099,0.033 -0.01563,0.053 -0.0033,0.011 -0.0044,0.016 -0.0078,0.027 -0.01,0.033 -0.01524,0.051 -0.02344,0.078 -0.0027,0.01 -0.0055,0.018 -0.0078,0.025 -0.0017,0.01 -0.0022,0.01 -0.0039,0.014 -0.002,0.01 -0.0062,0.018 -0.0078,0.023 -0.0021,0.01 -0.0037,0.01 -0.0059,0.016 -0.0054,0.016 -0.0067,0.024 -0.01172,0.039 -0.0053,0.016 -0.008,0.023 -0.01367,0.039 -0.0028,0.01 -0.0051,0.011 -0.0078,0.019 -7.84e-4,0 -0.0012,0.01 -0.002,0.01 -0.0017,0.01 -0.0044,0.013 -0.0059,0.018 -2.29e-4,6e-4 2.28e-4,0 0,0 -0.0022,0.01 -0.0036,0.01 -0.0059,0.016 -0.0019,0.01 -0.0038,0.01 -0.0059,0.016 -0.0073,0.02 -0.01091,0.03 -0.01758,0.049 -0.0041,0.011 -0.0074,0.016 -0.01172,0.027 -0.0092,0.025 -0.01331,0.037 -0.02148,0.059 -0.0033,0.01 -0.0044,0.013 -0.0078,0.022 -0.0091,0.025 -0.0208,0.06 -0.02539,0.072 -0.0026,0.01 -0.0054,0.013 -0.0078,0.02 -0.0022,0.01 -0.0036,0.01 -0.0059,0.016 -0.0011,0 -0.0019,0 -0.0059,0.018 -0.0029,0.01 -0.0095,0.023 -0.01172,0.029 -0.0014,0 -0.0031,0.01 -0.0059,0.016 -0.0014,0 -0.0097,0.033 -0.0098,0.033 0,1e-4 0.01257,0 0.01367,0 0.001,0 0.01667,0.055 0.0332,0.1093 0.01263,0 0.05441,0.013 0.08203,0.02 -0.03192,0.01 -0.04946,0.014 -0.06836,0.02 0.0109,0.036 0.02344,0.08 0.02344,0.08 0,0 0.347656,0.123 0.347656,0.123 0,0 0.03274,-0.017 0.06445,-0.033 h 5.054687 a 0.34103761,0.34103761 0 0 0 0.332032,-0.2656 c 0.20194,-0.8897 0.31353,-1.8017 0.318359,-2.7168 -2.03e-4,-1.6468 -0.328529,-3.2928 -0.958984,-4.8144 -0.630505,-1.5217 -1.564,-2.9138 -2.728516,-4.0781 -1.164569,-1.1644 -2.556409,-2.0965 -4.078125,-2.7266 -1.52161,-0.6302 -3.167424,-0.9591 -4.814453,-0.959 z m 0,9.7676 c -0.739657,0 -1.463074,0.3011 -1.986328,0.8242 -0.523276,0.5233 -0.824151,1.2468 -0.824219,1.9863 6.8e-5,0.7397 0.301295,1.4615 0.824219,1.9844 0.522941,0.523 1.246072,0.8261 1.986328,0.8262 0.740256,-10e-5 1.463387,-0.3032 1.986328,-0.8262 0.522924,-0.5229 0.824151,-1.2447 0.824219,-1.9844 -6.8e-5,-0.7395 -0.300943,-1.463 -0.824219,-1.9863 -0.523254,-0.5231 -1.246671,-0.8242 -1.986328,-0.8242 z m 17.6875,3.6973 c 0,-10e-5 -0.0017,0 -0.002,0.01 1.5e-5,-4e-4 -2.1e-5,0 0,0 8.8e-5,0 0.002,-0.01 0.002,-0.01 z"
     style="opacity:0.3;fill:#000000;fill-opacity:1;stroke:none;stroke-width:10;stroke-miterlimit:4;stroke-dasharray:none;stroke-dashoffset:0;stroke-opacity:1;filter:url(#filter4228);shape-rendering:crispEdges"
     inkscape:connector-curvature="0"
     transform="matrix(15.499771,0,0,15.499771,183.00265,-15689.94)"
     inkscape:export-xdpi="90.004402"
     inkscape:export-ydpi="90.004402" />
  <path
     inkscape:connector-curvature="0"
     id="path4170"
     d="m 398.78852,51.907973 a 352.63989,352.63989 0 0 0 -40.2328,2.514063 v 82.644784 a 270.71754,270.71754 0 0 1 40.2328,-3.23946 270.71754,270.71754 0 0 1 270.73136,270.7314 270.71754,270.71754 0 0 1 -3.66303,42.41203 h 82.58472 A 352.63989,352.63989 0 0 0 751.43859,404.55876 352.63989,352.63989 0 0 0 398.78852,51.907973 Z m 0,161.507617 a 191.13584,191.13584 0 0 0 -40.2328,4.38953 v 80.28417 a 113.89477,113.89477 0 0 1 40.2328,-7.41819 113.89477,113.89477 0 0 1 113.88699,113.88766 113.89477,113.89477 0 0 1 -8.2948,42.41203 h 80.55644 a 191.13584,191.13584 0 0 0 4.99503,-42.41203 191.13584,191.13584 0 0 0 -191.14366,-191.14317 z m 0,151.42501 a 39.721803,39.721803 0 0 0 -39.71816,39.71816 39.721803,39.721803 0 0 0 39.71816,39.71817 39.721803,39.721803 0 0 0 39.71817,-39.71817 39.721803,39.721803 0 0 0 -39.71817,-39.71816 z"
     style="opacity:1;fill:#ffffff;fill-opacity:1;stroke:none;stroke-width:154.99771118;stroke-miterlimit:4;stroke-dasharray:none;stroke-dashoffset:0;stroke-opacity:1;shape-rendering:crispEdges"
     inkscape:export-xdpi="90.004402"
     inkscape:export-ydpi="90.004402" />
</svg>
